<svg width="100" height="126" viewBox="0 0 100 126" fill="none" xmlns="http://www.w3.org/2000/svg">
<path d="M25.5518 118.66H20.1904L18.9863 122H17.2461L22.1328 109.203H23.6094L28.5049 122H26.7734L25.5518 118.66ZM20.7002 117.271H25.0508L22.8711 111.286L20.7002 117.271ZM31.5107 112.49L31.5635 113.686C32.29 112.771 33.2393 112.314 34.4111 112.314C36.4209 112.314 37.4346 113.448 37.4521 115.716V122H35.8262V115.707C35.8203 115.021 35.6621 114.515 35.3516 114.187C35.0469 113.858 34.5693 113.694 33.9189 113.694C33.3916 113.694 32.9287 113.835 32.5303 114.116C32.1318 114.397 31.8213 114.767 31.5986 115.224V122H29.9727V112.49H31.5107ZM41.6709 122H40.0449V112.49H41.6709V122ZM39.9131 109.968C39.9131 109.704 39.9922 109.481 40.1504 109.3C40.3145 109.118 40.5547 109.027 40.8711 109.027C41.1875 109.027 41.4277 109.118 41.5918 109.3C41.7559 109.481 41.8379 109.704 41.8379 109.968C41.8379 110.231 41.7559 110.451 41.5918 110.627C41.4277 110.803 41.1875 110.891 40.8711 110.891C40.5547 110.891 40.3145 110.803 40.1504 110.627C39.9922 110.451 39.9131 110.231 39.9131 109.968ZM45.8105 112.49L45.8545 113.545C46.5518 112.725 47.4922 112.314 48.6758 112.314C50.0059 112.314 50.9111 112.824 51.3916 113.844C51.708 113.387 52.1182 113.018 52.6221 112.736C53.1318 112.455 53.7324 112.314 54.4238 112.314C56.5098 112.314 57.5703 113.419 57.6055 115.628V122H55.9795V115.725C55.9795 115.045 55.8242 114.538 55.5137 114.204C55.2031 113.864 54.6816 113.694 53.9492 113.694C53.3457 113.694 52.8447 113.876 52.4463 114.239C52.0479 114.597 51.8164 115.08 51.752 115.689V122H50.1172V115.769C50.1172 114.386 49.4404 113.694 48.0869 113.694C47.0205 113.694 46.291 114.148 45.8984 115.057V122H44.2725V112.49H45.8105ZM65.9375 122C65.8438 121.812 65.7676 121.479 65.709 120.998C64.9531 121.783 64.0508 122.176 63.002 122.176C62.0645 122.176 61.2939 121.912 60.6904 121.385C60.0928 120.852 59.7939 120.178 59.7939 119.363C59.7939 118.373 60.1689 117.605 60.9189 117.061C61.6748 116.51 62.7354 116.234 64.1006 116.234H65.6826V115.487C65.6826 114.919 65.5127 114.468 65.1729 114.134C64.833 113.794 64.332 113.624 63.6699 113.624C63.0898 113.624 62.6035 113.771 62.2109 114.063C61.8184 114.356 61.6221 114.711 61.6221 115.127H59.9873C59.9873 114.652 60.1543 114.195 60.4883 113.756C60.8281 113.311 61.2852 112.959 61.8594 112.701C62.4395 112.443 63.0752 112.314 63.7666 112.314C64.8623 112.314 65.7207 112.59 66.3418 113.141C66.9629 113.686 67.2852 114.438 67.3086 115.399V119.776C67.3086 120.649 67.4199 121.344 67.6426 121.859V122H65.9375ZM63.2393 120.761C63.749 120.761 64.2324 120.629 64.6895 120.365C65.1465 120.102 65.4775 119.759 65.6826 119.337V117.386H64.4082C62.416 117.386 61.4199 117.969 61.4199 119.135C61.4199 119.645 61.5898 120.043 61.9297 120.33C62.2695 120.617 62.7061 120.761 63.2393 120.761ZM71.624 122H69.998V108.5H71.624V122ZM79.7715 119.478C79.7715 119.038 79.6045 118.698 79.2705 118.458C78.9424 118.212 78.3652 118.001 77.5391 117.825C76.7188 117.649 76.0654 117.438 75.5791 117.192C75.0986 116.946 74.7412 116.653 74.5068 116.313C74.2783 115.974 74.1641 115.569 74.1641 115.101C74.1641 114.321 74.4922 113.662 75.1484 113.123C75.8105 112.584 76.6543 112.314 77.6797 112.314C78.7578 112.314 79.6309 112.593 80.2988 113.149C80.9727 113.706 81.3096 114.418 81.3096 115.285H79.6748C79.6748 114.84 79.4844 114.456 79.1035 114.134C78.7285 113.812 78.2539 113.65 77.6797 113.65C77.0879 113.65 76.625 113.779 76.291 114.037C75.957 114.295 75.79 114.632 75.79 115.048C75.79 115.44 75.9453 115.736 76.2559 115.936C76.5664 116.135 77.126 116.325 77.9346 116.507C78.749 116.688 79.4082 116.905 79.9121 117.157C80.416 117.409 80.7881 117.714 81.0283 118.071C81.2744 118.423 81.3975 118.854 81.3975 119.363C81.3975 120.213 81.0576 120.896 80.3779 121.411C79.6982 121.921 78.8164 122.176 77.7324 122.176C76.9707 122.176 76.2969 122.041 75.7109 121.771C75.125 121.502 74.665 121.127 74.3311 120.646C74.0029 120.16 73.8389 119.636 73.8389 119.073H75.4648C75.4941 119.618 75.7109 120.052 76.1152 120.374C76.5254 120.69 77.0645 120.849 77.7324 120.849C78.3477 120.849 78.8398 120.726 79.209 120.479C79.584 120.228 79.7715 119.894 79.7715 119.478Z" fill="#1E0E00"/>
<circle cx="50" cy="50" r="49" stroke="#51CAF4" stroke-width="2"/>
<path d="M44.6223 53.1293C38.1799 60.8602 33.706 62.793 30.4847 66.909C27.7646 70.6313 30.6637 73.1725 32.2743 74.4252C35.6745 76.7516 41.0432 75.7972 43.5486 74.7831C48.7383 72.6825 54.7019 74.2355 56.9704 74.7831C61.1222 75.7852 64.5462 75.2007 65.7392 74.7831C72.8975 71.9198 70.0342 67.0137 66.9919 65.1194C57.5072 59.2138 59.6547 58.8559 54.107 53.1293C49.6689 48.548 45.9347 51.2204 44.6223 53.1293Z" stroke="#51CAF4" stroke-width="2"/>
<path d="M24.3077 43.3412C19.783 50.6118 23.3533 56.9505 25.7041 59.211C29.8331 62.355 32.5018 60.4392 35.1516 56.725C37.2714 53.7536 36.5119 48.9523 35.8672 46.9231C33.8994 42.6997 28.8325 36.0705 24.3077 43.3412Z" stroke="#51CAF4" stroke-width="2"/>
<path d="M38.3391 27.792C33.042 34.5207 35.8934 41.2137 37.9812 43.7191C41.7393 47.2982 44.6026 45.6877 47.6448 42.2875C50.0787 39.5673 49.852 34.7116 49.4344 32.6238C47.9431 28.2095 43.6362 21.0632 38.3391 27.792Z" stroke="#51CAF4" stroke-width="2"/>
<path d="M56.2698 27.7728C50.9417 34.4771 53.7622 41.1831 55.8385 43.6981C59.58 47.2946 62.4507 45.6972 65.5086 42.3111C67.955 39.6022 67.7507 34.7455 67.3428 32.6557C65.8718 28.2346 61.5979 21.0685 56.2698 27.7728Z" stroke="#51CAF4" stroke-width="2"/>
<path d="M69.3122 44.5416C62.5315 49.7721 63.6611 56.959 65.0735 59.8986C67.8432 64.2874 71.0132 63.4253 74.7941 60.8715C77.8188 58.8285 78.7854 54.0646 78.8906 51.938C78.5231 47.2931 76.0928 39.311 69.3122 44.5416Z" stroke="#51CAF4" stroke-width="2"/>
</svg>
