<svg width="100" height="126" viewBox="0 0 100 126" fill="none" xmlns="http://www.w3.org/2000/svg">
<path d="M15.4854 122V109.203H19.6689C21.0576 109.203 22.1006 109.49 22.7979 110.064C23.501 110.639 23.8525 111.488 23.8525 112.613C23.8525 113.211 23.6826 113.741 23.3428 114.204C23.0029 114.661 22.54 115.016 21.9541 115.268C22.6455 115.461 23.1904 115.83 23.5889 116.375C23.9932 116.914 24.1953 117.559 24.1953 118.309C24.1953 119.457 23.8232 120.359 23.0791 121.016C22.335 121.672 21.2832 122 19.9238 122H15.4854ZM17.1729 116.015V120.62H19.959C20.7441 120.62 21.3623 120.418 21.8135 120.014C22.2705 119.604 22.499 119.041 22.499 118.326C22.499 116.785 21.6611 116.015 19.9854 116.015H17.1729ZM17.1729 114.661H19.7217C20.46 114.661 21.0488 114.477 21.4883 114.107C21.9336 113.738 22.1562 113.237 22.1562 112.604C22.1562 111.901 21.9512 111.392 21.541 111.075C21.1309 110.753 20.5068 110.592 19.6689 110.592H17.1729V114.661ZM32.3164 121.06C31.6836 121.804 30.7549 122.176 29.5303 122.176C28.5166 122.176 27.7432 121.883 27.21 121.297C26.6826 120.705 26.416 119.832 26.4102 118.678V112.49H28.0361V118.634C28.0361 120.075 28.6221 120.796 29.7939 120.796C31.0361 120.796 31.8623 120.333 32.2725 119.407V112.49H33.8984V122H32.3516L32.3164 121.06ZM41.9141 119.478C41.9141 119.038 41.7471 118.698 41.4131 118.458C41.085 118.212 40.5078 118.001 39.6816 117.825C38.8613 117.649 38.208 117.438 37.7217 117.192C37.2412 116.946 36.8838 116.653 36.6494 116.313C36.4209 115.974 36.3066 115.569 36.3066 115.101C36.3066 114.321 36.6348 113.662 37.291 113.123C37.9531 112.584 38.7969 112.314 39.8223 112.314C40.9004 112.314 41.7734 112.593 42.4414 113.149C43.1152 113.706 43.4521 114.418 43.4521 115.285H41.8174C41.8174 114.84 41.627 114.456 41.2461 114.134C40.8711 113.812 40.3965 113.65 39.8223 113.65C39.2305 113.65 38.7676 113.779 38.4336 114.037C38.0996 114.295 37.9326 114.632 37.9326 115.048C37.9326 115.44 38.0879 115.736 38.3984 115.936C38.709 116.135 39.2686 116.325 40.0771 116.507C40.8916 116.688 41.5508 116.905 42.0547 117.157C42.5586 117.409 42.9307 117.714 43.1709 118.071C43.417 118.423 43.54 118.854 43.54 119.363C43.54 120.213 43.2002 120.896 42.5205 121.411C41.8408 121.921 40.959 122.176 39.875 122.176C39.1133 122.176 38.4395 122.041 37.8535 121.771C37.2676 121.502 36.8076 121.127 36.4736 120.646C36.1455 120.16 35.9814 119.636 35.9814 119.073H37.6074C37.6367 119.618 37.8535 120.052 38.2578 120.374C38.668 120.69 39.207 120.849 39.875 120.849C40.4902 120.849 40.9824 120.726 41.3516 120.479C41.7266 120.228 41.9141 119.894 41.9141 119.478ZM47.4248 122H45.7988V112.49H47.4248V122ZM45.667 109.968C45.667 109.704 45.7461 109.481 45.9043 109.3C46.0684 109.118 46.3086 109.027 46.625 109.027C46.9414 109.027 47.1816 109.118 47.3457 109.3C47.5098 109.481 47.5918 109.704 47.5918 109.968C47.5918 110.231 47.5098 110.451 47.3457 110.627C47.1816 110.803 46.9414 110.891 46.625 110.891C46.3086 110.891 46.0684 110.803 45.9043 110.627C45.7461 110.451 45.667 110.231 45.667 109.968ZM51.5732 112.49L51.626 113.686C52.3525 112.771 53.3018 112.314 54.4736 112.314C56.4834 112.314 57.4971 113.448 57.5146 115.716V122H55.8887V115.707C55.8828 115.021 55.7246 114.515 55.4141 114.187C55.1094 113.858 54.6318 113.694 53.9814 113.694C53.4541 113.694 52.9912 113.835 52.5928 114.116C52.1943 114.397 51.8838 114.767 51.6611 115.224V122H50.0352V112.49H51.5732ZM63.9131 122.176C62.624 122.176 61.5752 121.754 60.7666 120.91C59.958 120.061 59.5537 118.927 59.5537 117.509V117.21C59.5537 116.267 59.7324 115.426 60.0898 114.688C60.4531 113.943 60.957 113.363 61.6016 112.947C62.252 112.525 62.9551 112.314 63.7109 112.314C64.9473 112.314 65.9082 112.722 66.5938 113.536C67.2793 114.351 67.6221 115.517 67.6221 117.034V117.711H61.1797C61.2031 118.648 61.4756 119.407 61.9971 119.987C62.5244 120.562 63.1924 120.849 64.001 120.849C64.5752 120.849 65.0615 120.731 65.46 120.497C65.8584 120.263 66.207 119.952 66.5059 119.565L67.499 120.339C66.7021 121.563 65.5068 122.176 63.9131 122.176ZM63.7109 113.65C63.0547 113.65 62.5039 113.891 62.0586 114.371C61.6133 114.846 61.3379 115.514 61.2324 116.375H65.9961V116.252C65.9492 115.426 65.7266 114.787 65.3281 114.336C64.9297 113.879 64.3906 113.65 63.7109 113.65ZM75.0488 119.478C75.0488 119.038 74.8818 118.698 74.5479 118.458C74.2197 118.212 73.6426 118.001 72.8164 117.825C71.9961 117.649 71.3428 117.438 70.8564 117.192C70.376 116.946 70.0186 116.653 69.7842 116.313C69.5557 115.974 69.4414 115.569 69.4414 115.101C69.4414 114.321 69.7695 113.662 70.4258 113.123C71.0879 112.584 71.9316 112.314 72.957 112.314C74.0352 112.314 74.9082 112.593 75.5762 113.149C76.25 113.706 76.5869 114.418 76.5869 115.285H74.9521C74.9521 114.84 74.7617 114.456 74.3809 114.134C74.0059 113.812 73.5312 113.65 72.957 113.65C72.3652 113.65 71.9023 113.779 71.5684 114.037C71.2344 114.295 71.0674 114.632 71.0674 115.048C71.0674 115.44 71.2227 115.736 71.5332 115.936C71.8438 116.135 72.4033 116.325 73.2119 116.507C74.0264 116.688 74.6855 116.905 75.1895 117.157C75.6934 117.409 76.0654 117.714 76.3057 118.071C76.5518 118.423 76.6748 118.854 76.6748 119.363C76.6748 120.213 76.335 120.896 75.6553 121.411C74.9756 121.921 74.0938 122.176 73.0098 122.176C72.248 122.176 71.5742 122.041 70.9883 121.771C70.4023 121.502 69.9424 121.127 69.6084 120.646C69.2803 120.16 69.1162 119.636 69.1162 119.073H70.7422C70.7715 119.618 70.9883 120.052 71.3926 120.374C71.8027 120.69 72.3418 120.849 73.0098 120.849C73.625 120.849 74.1172 120.726 74.4863 120.479C74.8613 120.228 75.0488 119.894 75.0488 119.478ZM84.3301 119.478C84.3301 119.038 84.1631 118.698 83.8291 118.458C83.501 118.212 82.9238 118.001 82.0977 117.825C81.2773 117.649 80.624 117.438 80.1377 117.192C79.6572 116.946 79.2998 116.653 79.0654 116.313C78.8369 115.974 78.7227 115.569 78.7227 115.101C78.7227 114.321 79.0508 113.662 79.707 113.123C80.3691 112.584 81.2129 112.314 82.2383 112.314C83.3164 112.314 84.1895 112.593 84.8574 113.149C85.5312 113.706 85.8682 114.418 85.8682 115.285H84.2334C84.2334 114.84 84.043 114.456 83.6621 114.134C83.2871 113.812 82.8125 113.65 82.2383 113.65C81.6465 113.65 81.1836 113.779 80.8496 114.037C80.5156 114.295 80.3486 114.632 80.3486 115.048C80.3486 115.44 80.5039 115.736 80.8145 115.936C81.125 116.135 81.6846 116.325 82.4932 116.507C83.3076 116.688 83.9668 116.905 84.4707 117.157C84.9746 117.409 85.3467 117.714 85.5869 118.071C85.833 118.423 85.9561 118.854 85.9561 119.363C85.9561 120.213 85.6162 120.896 84.9365 121.411C84.2568 121.921 83.375 122.176 82.291 122.176C81.5293 122.176 80.8555 122.041 80.2695 121.771C79.6836 121.502 79.2236 121.127 78.8896 120.646C78.5615 120.16 78.3975 119.636 78.3975 119.073H80.0234C80.0527 119.618 80.2695 120.052 80.6738 120.374C81.084 120.69 81.623 120.849 82.291 120.849C82.9062 120.849 83.3984 120.726 83.7676 120.479C84.1426 120.228 84.3301 119.894 84.3301 119.478Z" fill="#1E0E00"/>
<circle cx="50" cy="50" r="49" stroke="#8374B5" stroke-width="2"/>
<path d="M25.1162 55.6204V69.3514C25.0539 71.1451 25.7888 74.7696 29.2265 74.918C32.6642 75.0665 57.4379 74.9799 69.3951 74.918C71.2634 75.0417 75 74.1016 75 69.3514C75 64.6012 75 58.2182 75 55.6204M40.4363 30.9417C40.374 28.9006 42.1925 24.8555 49.9647 25.004C57.7368 25.1524 59.6799 29.0243 59.6799 30.9417M25.1162 48.3838V37.2505C24.8671 36.4465 24.8546 34.8383 26.7977 34.8383C28.7407 34.8383 57.9984 34.8383 72.3844 34.8383C73.2562 34.8383 75 35.3208 75 37.2505C75 39.1803 75 45.4768 75 48.3838C70.3915 50.796 59.082 55.6204 50.712 55.6204C42.342 55.6204 30.1606 50.796 25.1162 48.3838Z" stroke="#8374B5" stroke-width="2"/>
</svg>
