<svg width="100" height="126" viewBox="0 0 100 126" fill="none" xmlns="http://www.w3.org/2000/svg">
<path d="M14.8984 117.939C14.7402 119.293 14.2393 120.339 13.3955 121.077C12.5576 121.81 11.4414 122.176 10.0469 122.176C8.53516 122.176 7.32227 121.634 6.4082 120.55C5.5 119.466 5.0459 118.016 5.0459 116.199V114.969C5.0459 113.779 5.25684 112.733 5.67871 111.831C6.10645 110.929 6.70996 110.237 7.48926 109.757C8.26855 109.271 9.1709 109.027 10.1963 109.027C11.5557 109.027 12.6455 109.408 13.4658 110.17C14.2861 110.926 14.7637 111.975 14.8984 113.316H13.2021C13.0557 112.297 12.7363 111.559 12.2441 111.102C11.7578 110.645 11.0752 110.416 10.1963 110.416C9.11816 110.416 8.27148 110.814 7.65625 111.611C7.04688 112.408 6.74219 113.542 6.74219 115.013V116.252C6.74219 117.641 7.03223 118.745 7.6123 119.565C8.19238 120.386 9.00391 120.796 10.0469 120.796C10.9844 120.796 11.7021 120.585 12.2002 120.163C12.7041 119.735 13.0381 118.994 13.2021 117.939H14.8984ZM16.5244 117.157C16.5244 116.226 16.7061 115.388 17.0693 114.644C17.4385 113.899 17.9482 113.325 18.5986 112.921C19.2549 112.517 20.002 112.314 20.8398 112.314C22.1348 112.314 23.1807 112.763 23.9775 113.659C24.7803 114.556 25.1816 115.748 25.1816 117.236V117.351C25.1816 118.276 25.0029 119.108 24.6455 119.847C24.2939 120.579 23.7871 121.15 23.125 121.561C22.4688 121.971 21.7129 122.176 20.8574 122.176C19.5684 122.176 18.5225 121.728 17.7197 120.831C16.9229 119.935 16.5244 118.748 16.5244 117.271V117.157ZM18.1592 117.351C18.1592 118.405 18.4023 119.252 18.8887 119.891C19.3809 120.529 20.0371 120.849 20.8574 120.849C21.6836 120.849 22.3398 120.526 22.8262 119.882C23.3125 119.231 23.5557 118.323 23.5557 117.157C23.5557 116.114 23.3066 115.271 22.8086 114.626C22.3164 113.976 21.6602 113.65 20.8398 113.65C20.0371 113.65 19.3896 113.97 18.8975 114.608C18.4053 115.247 18.1592 116.161 18.1592 117.351ZM28.75 112.49L28.7939 113.545C29.4912 112.725 30.4316 112.314 31.6152 112.314C32.9453 112.314 33.8506 112.824 34.3311 113.844C34.6475 113.387 35.0576 113.018 35.5615 112.736C36.0713 112.455 36.6719 112.314 37.3633 112.314C39.4492 112.314 40.5098 113.419 40.5449 115.628V122H38.9189V115.725C38.9189 115.045 38.7637 114.538 38.4531 114.204C38.1426 113.864 37.6211 113.694 36.8887 113.694C36.2852 113.694 35.7842 113.876 35.3857 114.239C34.9873 114.597 34.7559 115.08 34.6914 115.689V122H33.0566V115.769C33.0566 114.386 32.3799 113.694 31.0264 113.694C29.96 113.694 29.2305 114.148 28.8379 115.057V122H27.2119V112.49H28.75ZM44.5352 112.49L44.5791 113.545C45.2764 112.725 46.2168 112.314 47.4004 112.314C48.7305 112.314 49.6357 112.824 50.1162 113.844C50.4326 113.387 50.8428 113.018 51.3467 112.736C51.8564 112.455 52.457 112.314 53.1484 112.314C55.2344 112.314 56.2949 113.419 56.3301 115.628V122H54.7041V115.725C54.7041 115.045 54.5488 114.538 54.2383 114.204C53.9277 113.864 53.4062 113.694 52.6738 113.694C52.0703 113.694 51.5693 113.876 51.1709 114.239C50.7725 114.597 50.541 115.08 50.4766 115.689V122H48.8418V115.769C48.8418 114.386 48.165 113.694 46.8115 113.694C45.7451 113.694 45.0156 114.148 44.623 115.057V122H42.9971V112.49H44.5352ZM64.6621 121.06C64.0293 121.804 63.1006 122.176 61.876 122.176C60.8623 122.176 60.0889 121.883 59.5557 121.297C59.0283 120.705 58.7617 119.832 58.7559 118.678V112.49H60.3818V118.634C60.3818 120.075 60.9678 120.796 62.1396 120.796C63.3818 120.796 64.208 120.333 64.6182 119.407V112.49H66.2441V122H64.6973L64.6621 121.06ZM70.2607 112.49L70.3135 113.686C71.04 112.771 71.9893 112.314 73.1611 112.314C75.1709 112.314 76.1846 113.448 76.2021 115.716V122H74.5762V115.707C74.5703 115.021 74.4121 114.515 74.1016 114.187C73.7969 113.858 73.3193 113.694 72.6689 113.694C72.1416 113.694 71.6787 113.835 71.2803 114.116C70.8818 114.397 70.5713 114.767 70.3486 115.224V122H68.7227V112.49H70.2607ZM80.4209 122H78.7949V112.49H80.4209V122ZM78.6631 109.968C78.6631 109.704 78.7422 109.481 78.9004 109.3C79.0645 109.118 79.3047 109.027 79.6211 109.027C79.9375 109.027 80.1777 109.118 80.3418 109.3C80.5059 109.481 80.5879 109.704 80.5879 109.968C80.5879 110.231 80.5059 110.451 80.3418 110.627C80.1777 110.803 79.9375 110.891 79.6211 110.891C79.3047 110.891 79.0645 110.803 78.9004 110.627C78.7422 110.451 78.6631 110.231 78.6631 109.968ZM85.2373 110.188V112.49H87.0127V113.747H85.2373V119.645C85.2373 120.025 85.3164 120.312 85.4746 120.506C85.6328 120.693 85.9023 120.787 86.2832 120.787C86.4707 120.787 86.7285 120.752 87.0566 120.682V122C86.6289 122.117 86.2129 122.176 85.8086 122.176C85.082 122.176 84.5342 121.956 84.165 121.517C83.7959 121.077 83.6113 120.453 83.6113 119.645V113.747H81.8799V112.49H83.6113V110.188H85.2373ZM92.0312 119.618L94.2461 112.49H95.9863L92.1631 123.468C91.5713 125.05 90.6309 125.841 89.3418 125.841L89.0342 125.814L88.4277 125.7V124.382L88.8672 124.417C89.418 124.417 89.8457 124.306 90.1504 124.083C90.4609 123.86 90.7158 123.453 90.915 122.861L91.2754 121.895L87.8828 112.49H89.6582L92.0312 119.618Z" fill="#1E0E00"/>
<circle cx="50" cy="50" r="49" stroke="#FCA8A3" stroke-width="2"/>
<path d="M55.4557 24.5748C58.2667 20.7586 62.6879 22.9259 62.6879 26.3659V45.8893V32.814C66.3333 29.7893 69.9201 33.0403 69.9201 36.0381C69.9804 44.5758 70.0648 63.4066 69.9201 70.4279C69.7755 77.4491 63.2303 79.6821 59.9758 79.9209C57.4445 79.9806 51.6226 80.0642 48.585 79.9209C45.5475 79.7776 42.6184 76.876 41.5336 75.4431L26.7075 56.6361C25.9843 55.3226 25.1888 52.3016 27.7924 50.7254C30.396 49.1492 33.3371 51.3821 34.4822 52.6956L39.5448 58.7855V27.978C40.3 22.2035 47.3543 23.6484 47.3194 27.978M55.4557 24.5748V45.8893M55.4557 24.5748C55.3351 23.2613 54.6 20.0361 51.3 20.0361C49.1 19.7652 47.1748 20.9925 47.3194 24.5748V27.978M47.3194 45.8893V27.978M54.9132 59.3228C55.2146 57.9496 56.649 55.4898 59.9758 56.6361C64.1333 58.0687 63.7667 61.9386 61.0606 65.4127C58.6244 68.5404 55.8173 70.6667 54.9132 71.5026L48.585 65.4127C46.3551 63.1439 45.3987 58.5764 50.0315 56.6361C52.0333 55.7977 54.4793 56.6003 54.9132 59.3228Z" stroke="#FCA8A3" stroke-width="2"/>
</svg>
