<svg width="100" height="126" viewBox="0 0 100 126" fill="none" xmlns="http://www.w3.org/2000/svg">
<path d="M32.543 116.349H27.1729V122H25.4854V109.203H33.4131V110.592H27.1729V114.969H32.543V116.349ZM40.752 122C40.6582 121.812 40.582 121.479 40.5234 120.998C39.7676 121.783 38.8652 122.176 37.8164 122.176C36.8789 122.176 36.1084 121.912 35.5049 121.385C34.9072 120.852 34.6084 120.178 34.6084 119.363C34.6084 118.373 34.9834 117.605 35.7334 117.061C36.4893 116.51 37.5498 116.234 38.915 116.234H40.4971V115.487C40.4971 114.919 40.3271 114.468 39.9873 114.134C39.6475 113.794 39.1465 113.624 38.4844 113.624C37.9043 113.624 37.418 113.771 37.0254 114.063C36.6328 114.356 36.4365 114.711 36.4365 115.127H34.8018C34.8018 114.652 34.9688 114.195 35.3027 113.756C35.6426 113.311 36.0996 112.959 36.6738 112.701C37.2539 112.443 37.8896 112.314 38.5811 112.314C39.6768 112.314 40.5352 112.59 41.1562 113.141C41.7773 113.686 42.0996 114.438 42.123 115.399V119.776C42.123 120.649 42.2344 121.344 42.457 121.859V122H40.752ZM38.0537 120.761C38.5635 120.761 39.0469 120.629 39.5039 120.365C39.9609 120.102 40.292 119.759 40.4971 119.337V117.386H39.2227C37.2305 117.386 36.2344 117.969 36.2344 119.135C36.2344 119.645 36.4043 120.043 36.7441 120.33C37.084 120.617 37.5205 120.761 38.0537 120.761ZM46.2012 112.49L46.2451 113.545C46.9424 112.725 47.8828 112.314 49.0664 112.314C50.3965 112.314 51.3018 112.824 51.7822 113.844C52.0986 113.387 52.5088 113.018 53.0127 112.736C53.5225 112.455 54.123 112.314 54.8145 112.314C56.9004 112.314 57.9609 113.419 57.9961 115.628V122H56.3701V115.725C56.3701 115.045 56.2148 114.538 55.9043 114.204C55.5938 113.864 55.0723 113.694 54.3398 113.694C53.7363 113.694 53.2354 113.876 52.8369 114.239C52.4385 114.597 52.207 115.08 52.1426 115.689V122H50.5078V115.769C50.5078 114.386 49.8311 113.694 48.4775 113.694C47.4111 113.694 46.6816 114.148 46.2891 115.057V122H44.6631V112.49H46.2012ZM62.2236 122H60.5977V112.49H62.2236V122ZM60.4658 109.968C60.4658 109.704 60.5449 109.481 60.7031 109.3C60.8672 109.118 61.1074 109.027 61.4238 109.027C61.7402 109.027 61.9805 109.118 62.1445 109.3C62.3086 109.481 62.3906 109.704 62.3906 109.968C62.3906 110.231 62.3086 110.451 62.1445 110.627C61.9805 110.803 61.7402 110.891 61.4238 110.891C61.1074 110.891 60.8672 110.803 60.7031 110.627C60.5449 110.451 60.4658 110.231 60.4658 109.968ZM66.6006 122H64.9746V108.5H66.6006V122ZM72.3223 119.618L74.5371 112.49H76.2773L72.4541 123.468C71.8623 125.05 70.9219 125.841 69.6328 125.841L69.3252 125.814L68.7188 125.7V124.382L69.1582 124.417C69.709 124.417 70.1367 124.306 70.4414 124.083C70.752 123.86 71.0068 123.453 71.2061 122.861L71.5664 121.895L68.1738 112.49H69.9492L72.3223 119.618Z" fill="#1E0E00"/>
<circle cx="50" cy="50" r="49" stroke="#FBD54F" stroke-width="2"/>
<path d="M68 67.6968V57.8592C68 56.6296 68 55.1949 64.1059 54.9899C58.7444 54.785 48.2919 53.5553 48.1199 42.8979C48.0504 38.594 47.0622 32.4454 40.5367 32.4454H33.1585C30.8712 32.4454 27.174 33.0193 27.01 37.7741V52.3256C27.01 55.3998 26.7722 54.9899 28.6168 54.9899C29.8136 54.9899 30.6991 55.8097 30.6991 57.8592V72.0008C30.6991 75.4849 35.962 76.5097 37.4296 73.4354M37.4296 73.4354V54.785M37.4296 73.4354C38.0444 74.6651 39.0363 75.28 40.5038 75.28C42.3484 75.28 43.3731 74.8701 43.5781 73.2305V54.9899M55.4981 57.8592C54.9148 60.3716 54.9208 64.2687 57.5476 65.9518M64.1059 75.28V66.2622C61.0101 67.1065 58.9207 66.8317 57.5476 65.9518M57.5476 65.9518V75.28" stroke="#FBD54F" stroke-width="2"/>
<circle cx="37.2575" cy="21.3782" r="6.3782" stroke="#FBD54F" stroke-width="2"/>
<circle cx="60.8268" cy="44.5376" r="4.12375" stroke="#FBD54F" stroke-width="2"/>
</svg>
