<svg width="100" height="125" viewBox="0 0 100 125" fill="none" xmlns="http://www.w3.org/2000/svg">
<path d="M21.665 108.203L25.8486 118.645L30.0322 108.203H32.2207V121H30.5332V116.017L30.6914 110.638L26.4902 121H25.1982L21.0059 110.664L21.1729 116.017V121H19.4854V108.203H21.665ZM38.8916 121.176C37.6025 121.176 36.5537 120.754 35.7451 119.91C34.9365 119.061 34.5322 117.927 34.5322 116.509V116.21C34.5322 115.267 34.7109 114.426 35.0684 113.688C35.4316 112.943 35.9355 112.363 36.5801 111.947C37.2305 111.525 37.9336 111.314 38.6895 111.314C39.9258 111.314 40.8867 111.722 41.5723 112.536C42.2578 113.351 42.6006 114.517 42.6006 116.034V116.711H36.1582C36.1816 117.648 36.4541 118.407 36.9756 118.987C37.5029 119.562 38.1709 119.849 38.9795 119.849C39.5537 119.849 40.04 119.731 40.4385 119.497C40.8369 119.263 41.1855 118.952 41.4844 118.565L42.4775 119.339C41.6807 120.563 40.4854 121.176 38.8916 121.176ZM38.6895 112.65C38.0332 112.65 37.4824 112.891 37.0371 113.371C36.5918 113.846 36.3164 114.514 36.2109 115.375H40.9746V115.252C40.9277 114.426 40.7051 113.787 40.3066 113.336C39.9082 112.879 39.3691 112.65 38.6895 112.65ZM44.0947 116.166C44.0947 114.707 44.4404 113.535 45.1318 112.65C45.8232 111.76 46.7285 111.314 47.8477 111.314C48.9609 111.314 49.8428 111.695 50.4932 112.457V107.5H52.1191V121H50.625L50.5459 119.98C49.8955 120.777 48.9902 121.176 47.8301 121.176C46.7285 121.176 45.8291 120.725 45.1318 119.822C44.4404 118.92 44.0947 117.742 44.0947 116.289V116.166ZM45.7207 116.351C45.7207 117.429 45.9434 118.272 46.3887 118.882C46.834 119.491 47.4492 119.796 48.2344 119.796C49.2656 119.796 50.0186 119.333 50.4932 118.407V114.039C50.0068 113.143 49.2598 112.694 48.252 112.694C47.4551 112.694 46.834 113.002 46.3887 113.617C45.9434 114.232 45.7207 115.144 45.7207 116.351ZM56.417 121H54.791V111.49H56.417V121ZM54.6592 108.968C54.6592 108.704 54.7383 108.481 54.8965 108.3C55.0605 108.118 55.3008 108.027 55.6172 108.027C55.9336 108.027 56.1738 108.118 56.3379 108.3C56.502 108.481 56.584 108.704 56.584 108.968C56.584 109.231 56.502 109.451 56.3379 109.627C56.1738 109.803 55.9336 109.891 55.6172 109.891C55.3008 109.891 55.0605 109.803 54.8965 109.627C54.7383 109.451 54.6592 109.231 54.6592 108.968ZM62.8418 119.849C63.4219 119.849 63.9287 119.673 64.3623 119.321C64.7959 118.97 65.0361 118.53 65.083 118.003H66.6211C66.5918 118.548 66.4043 119.066 66.0586 119.559C65.7129 120.051 65.25 120.443 64.6699 120.736C64.0957 121.029 63.4863 121.176 62.8418 121.176C61.5469 121.176 60.5156 120.745 59.748 119.884C58.9863 119.017 58.6055 117.833 58.6055 116.333V116.061C58.6055 115.135 58.7754 114.312 59.1152 113.591C59.4551 112.87 59.9414 112.311 60.5742 111.912C61.2129 111.514 61.9658 111.314 62.833 111.314C63.8994 111.314 64.7842 111.634 65.4873 112.272C66.1963 112.911 66.5742 113.74 66.6211 114.76H65.083C65.0361 114.145 64.8018 113.641 64.3799 113.248C63.9639 112.85 63.4482 112.65 62.833 112.65C62.0068 112.65 61.3652 112.949 60.9082 113.547C60.457 114.139 60.2314 114.997 60.2314 116.122V116.43C60.2314 117.525 60.457 118.369 60.9082 118.961C61.3594 119.553 62.0039 119.849 62.8418 119.849ZM74.3203 121C74.2266 120.812 74.1504 120.479 74.0918 119.998C73.3359 120.783 72.4336 121.176 71.3848 121.176C70.4473 121.176 69.6768 120.912 69.0732 120.385C68.4756 119.852 68.1768 119.178 68.1768 118.363C68.1768 117.373 68.5518 116.605 69.3018 116.061C70.0576 115.51 71.1182 115.234 72.4834 115.234H74.0654V114.487C74.0654 113.919 73.8955 113.468 73.5557 113.134C73.2158 112.794 72.7148 112.624 72.0527 112.624C71.4727 112.624 70.9863 112.771 70.5938 113.063C70.2012 113.356 70.0049 113.711 70.0049 114.127H68.3701C68.3701 113.652 68.5371 113.195 68.8711 112.756C69.2109 112.311 69.668 111.959 70.2422 111.701C70.8223 111.443 71.458 111.314 72.1494 111.314C73.2451 111.314 74.1035 111.59 74.7246 112.141C75.3457 112.686 75.668 113.438 75.6914 114.399V118.776C75.6914 119.649 75.8027 120.344 76.0254 120.859V121H74.3203ZM71.6221 119.761C72.1318 119.761 72.6152 119.629 73.0723 119.365C73.5293 119.102 73.8604 118.759 74.0654 118.337V116.386H72.791C70.7988 116.386 69.8027 116.969 69.8027 118.135C69.8027 118.645 69.9727 119.043 70.3125 119.33C70.6523 119.617 71.0889 119.761 71.6221 119.761ZM80.0068 121H78.3809V107.5H80.0068V121Z" fill="#1E0E00"/>
<circle cx="50" cy="50" r="49" stroke="#90BF55" stroke-width="2"/>
<path d="M24 42.5524C24.6667 34.219 30.7 20.2524 49.5 31.0524C57.6667 26.219 74.5 23 76 42.5524C76 51 72.3 58.3524 49.5 73.5524C45.6667 70.5524 34.2 63.2 31 58" stroke="#90BF55" stroke-width="2"/>
<path d="M25.5 51.5525H30.5L35 46.5525L37 51.5525L42.5 39.5525L47.5 56.5525L53 46.5525L56 51.5525H62.5" stroke="#90BF55"/>
</svg>
