<svg width="128" height="124" viewBox="0 0 128 124" fill="none" xmlns="http://www.w3.org/2000/svg">
<path d="M8.69531 115.695C8.69531 114.867 8.85677 114.122 9.17969 113.461C9.50781 112.799 9.96094 112.289 10.5391 111.93C11.1224 111.57 11.7865 111.391 12.5312 111.391C13.6823 111.391 14.612 111.789 15.3203 112.586C16.0339 113.383 16.3906 114.443 16.3906 115.766V115.867C16.3906 116.69 16.2318 117.43 15.9141 118.086C15.6016 118.737 15.151 119.245 14.5625 119.609C13.9792 119.974 13.3073 120.156 12.5469 120.156C11.401 120.156 10.4714 119.758 9.75781 118.961C9.04948 118.164 8.69531 117.109 8.69531 115.797V115.695ZM10.1484 115.867C10.1484 116.805 10.3646 117.557 10.7969 118.125C11.2344 118.693 11.8177 118.977 12.5469 118.977C13.2812 118.977 13.8646 118.69 14.2969 118.117C14.7292 117.539 14.9453 116.732 14.9453 115.695C14.9453 114.768 14.724 114.018 14.2812 113.445C13.8438 112.867 13.2604 112.578 12.5312 112.578C11.8177 112.578 11.2422 112.862 10.8047 113.43C10.3672 113.997 10.1484 114.81 10.1484 115.867ZM20.1641 109.5V111.547H21.7422V112.664H20.1641V117.906C20.1641 118.245 20.2344 118.5 20.375 118.672C20.5156 118.839 20.7552 118.922 21.0938 118.922C21.2604 118.922 21.4896 118.891 21.7812 118.828V120C21.401 120.104 21.0312 120.156 20.6719 120.156C20.026 120.156 19.5391 119.961 19.2109 119.57C18.8828 119.18 18.7188 118.625 18.7188 117.906V112.664H17.1797V111.547H18.7188V109.5H20.1641ZM24.8828 112.57C25.5234 111.784 26.3568 111.391 27.3828 111.391C29.1693 111.391 30.0703 112.398 30.0859 114.414V120H28.6406V114.406C28.6354 113.797 28.4948 113.346 28.2188 113.055C27.9479 112.763 27.5234 112.617 26.9453 112.617C26.4766 112.617 26.0651 112.742 25.7109 112.992C25.3568 113.242 25.0807 113.57 24.8828 113.977V120H23.4375V108H24.8828V112.57ZM35.7578 120.156C34.612 120.156 33.6797 119.781 32.9609 119.031C32.2422 118.276 31.8828 117.268 31.8828 116.008V115.742C31.8828 114.904 32.0417 114.156 32.3594 113.5C32.6823 112.839 33.1302 112.323 33.7031 111.953C34.2812 111.578 34.9062 111.391 35.5781 111.391C36.6771 111.391 37.5312 111.753 38.1406 112.477C38.75 113.201 39.0547 114.237 39.0547 115.586V116.188H33.3281C33.349 117.021 33.5911 117.695 34.0547 118.211C34.5234 118.721 35.1172 118.977 35.8359 118.977C36.3464 118.977 36.7786 118.872 37.1328 118.664C37.487 118.456 37.7969 118.18 38.0625 117.836L38.9453 118.523C38.237 119.612 37.1745 120.156 35.7578 120.156ZM35.5781 112.578C34.9948 112.578 34.5052 112.792 34.1094 113.219C33.7135 113.641 33.4688 114.234 33.375 115H37.6094V114.891C37.5677 114.156 37.3698 113.589 37.0156 113.188C36.6615 112.781 36.1823 112.578 35.5781 112.578ZM44.8203 112.844C44.6016 112.807 44.3646 112.789 44.1094 112.789C43.1615 112.789 42.5182 113.193 42.1797 114V120H40.7344V111.547H42.1406L42.1641 112.523C42.638 111.768 43.3099 111.391 44.1797 111.391C44.4609 111.391 44.6745 111.427 44.8203 111.5V112.844ZM53.5156 118.977C54.0312 118.977 54.4818 118.82 54.8672 118.508C55.2526 118.195 55.4661 117.805 55.5078 117.336H56.875C56.849 117.82 56.6823 118.281 56.375 118.719C56.0677 119.156 55.6562 119.505 55.1406 119.766C54.6302 120.026 54.0885 120.156 53.5156 120.156C52.3646 120.156 51.4479 119.773 50.7656 119.008C50.0885 118.237 49.75 117.185 49.75 115.852V115.609C49.75 114.786 49.901 114.055 50.2031 113.414C50.5052 112.773 50.9375 112.276 51.5 111.922C52.0677 111.568 52.737 111.391 53.5078 111.391C54.4557 111.391 55.2422 111.674 55.8672 112.242C56.4974 112.81 56.8333 113.547 56.875 114.453H55.5078C55.4661 113.906 55.2578 113.458 54.8828 113.109C54.513 112.755 54.0547 112.578 53.5078 112.578C52.7734 112.578 52.2031 112.844 51.7969 113.375C51.3958 113.901 51.1953 114.664 51.1953 115.664V115.938C51.1953 116.911 51.3958 117.661 51.7969 118.188C52.1979 118.714 52.7708 118.977 53.5156 118.977ZM63.7188 120C63.6354 119.833 63.5677 119.536 63.5156 119.109C62.8438 119.807 62.0417 120.156 61.1094 120.156C60.276 120.156 59.5911 119.922 59.0547 119.453C58.5234 118.979 58.2578 118.38 58.2578 117.656C58.2578 116.776 58.5911 116.094 59.2578 115.609C59.9297 115.12 60.8724 114.875 62.0859 114.875H63.4922V114.211C63.4922 113.706 63.3411 113.305 63.0391 113.008C62.737 112.706 62.2917 112.555 61.7031 112.555C61.1875 112.555 60.7552 112.685 60.4062 112.945C60.0573 113.206 59.8828 113.521 59.8828 113.891H58.4297C58.4297 113.469 58.5781 113.062 58.875 112.672C59.1771 112.276 59.5833 111.964 60.0938 111.734C60.6094 111.505 61.1745 111.391 61.7891 111.391C62.763 111.391 63.526 111.635 64.0781 112.125C64.6302 112.609 64.9167 113.279 64.9375 114.133V118.023C64.9375 118.799 65.0365 119.417 65.2344 119.875V120H63.7188ZM61.3203 118.898C61.7734 118.898 62.2031 118.781 62.6094 118.547C63.0156 118.312 63.3099 118.008 63.4922 117.633V115.898H62.3594C60.5885 115.898 59.7031 116.417 59.7031 117.453C59.7031 117.906 59.8542 118.26 60.1562 118.516C60.4583 118.771 60.8464 118.898 61.3203 118.898ZM69.1641 109.5V111.547H70.7422V112.664H69.1641V117.906C69.1641 118.245 69.2344 118.5 69.375 118.672C69.5156 118.839 69.7552 118.922 70.0938 118.922C70.2604 118.922 70.4896 118.891 70.7812 118.828V120C70.401 120.104 70.0312 120.156 69.6719 120.156C69.026 120.156 68.5391 119.961 68.2109 119.57C67.8828 119.18 67.7188 118.625 67.7188 117.906V112.664H66.1797V111.547H67.7188V109.5H69.1641ZM75.9453 120.156C74.7995 120.156 73.8672 119.781 73.1484 119.031C72.4297 118.276 72.0703 117.268 72.0703 116.008V115.742C72.0703 114.904 72.2292 114.156 72.5469 113.5C72.8698 112.839 73.3177 112.323 73.8906 111.953C74.4688 111.578 75.0938 111.391 75.7656 111.391C76.8646 111.391 77.7188 111.753 78.3281 112.477C78.9375 113.201 79.2422 114.237 79.2422 115.586V116.188H73.5156C73.5365 117.021 73.7786 117.695 74.2422 118.211C74.7109 118.721 75.3047 118.977 76.0234 118.977C76.5339 118.977 76.9661 118.872 77.3203 118.664C77.6745 118.456 77.9844 118.18 78.25 117.836L79.1328 118.523C78.4245 119.612 77.362 120.156 75.9453 120.156ZM75.7656 112.578C75.1823 112.578 74.6927 112.792 74.2969 113.219C73.901 113.641 73.6562 114.234 73.5625 115H77.7969V114.891C77.7552 114.156 77.5573 113.589 77.2031 113.188C76.849 112.781 76.3698 112.578 75.7656 112.578ZM80.5781 115.703C80.5781 114.385 80.8828 113.339 81.4922 112.562C82.1016 111.781 82.9089 111.391 83.9141 111.391C84.9453 111.391 85.75 111.755 86.3281 112.484L86.3984 111.547H87.7188V119.797C87.7188 120.891 87.3932 121.753 86.7422 122.383C86.0964 123.013 85.2266 123.328 84.1328 123.328C83.5234 123.328 82.9271 123.198 82.3438 122.938C81.7604 122.677 81.3151 122.32 81.0078 121.867L81.7578 121C82.3776 121.766 83.1354 122.148 84.0312 122.148C84.7344 122.148 85.2812 121.951 85.6719 121.555C86.0677 121.159 86.2656 120.602 86.2656 119.883V119.156C85.6875 119.823 84.8984 120.156 83.8984 120.156C82.9089 120.156 82.1068 119.758 81.4922 118.961C80.8828 118.164 80.5781 117.078 80.5781 115.703ZM82.0312 115.867C82.0312 116.82 82.2266 117.57 82.6172 118.117C83.0078 118.659 83.5547 118.93 84.2578 118.93C85.1693 118.93 85.8385 118.516 86.2656 117.688V113.828C85.8229 113.021 85.1589 112.617 84.2734 112.617C83.5703 112.617 83.0208 112.891 82.625 113.438C82.2292 113.984 82.0312 114.794 82.0312 115.867ZM89.5234 115.695C89.5234 114.867 89.6849 114.122 90.0078 113.461C90.3359 112.799 90.7891 112.289 91.3672 111.93C91.9505 111.57 92.6146 111.391 93.3594 111.391C94.5104 111.391 95.4401 111.789 96.1484 112.586C96.862 113.383 97.2188 114.443 97.2188 115.766V115.867C97.2188 116.69 97.0599 117.43 96.7422 118.086C96.4297 118.737 95.9792 119.245 95.3906 119.609C94.8073 119.974 94.1354 120.156 93.375 120.156C92.2292 120.156 91.2995 119.758 90.5859 118.961C89.8776 118.164 89.5234 117.109 89.5234 115.797V115.695ZM90.9766 115.867C90.9766 116.805 91.1927 117.557 91.625 118.125C92.0625 118.693 92.6458 118.977 93.375 118.977C94.1094 118.977 94.6927 118.69 95.125 118.117C95.5573 117.539 95.7734 116.732 95.7734 115.695C95.7734 114.768 95.5521 114.018 95.1094 113.445C94.6719 112.867 94.0885 112.578 93.3594 112.578C92.6458 112.578 92.0703 112.862 91.6328 113.43C91.1953 113.997 90.9766 114.81 90.9766 115.867ZM103.117 112.844C102.898 112.807 102.661 112.789 102.406 112.789C101.458 112.789 100.815 113.193 100.477 114V120H99.0312V111.547H100.438L100.461 112.523C100.935 111.768 101.607 111.391 102.477 111.391C102.758 111.391 102.971 111.427 103.117 111.5V112.844ZM106.023 120H104.578V111.547H106.023V120ZM104.461 109.305C104.461 109.07 104.531 108.872 104.672 108.711C104.818 108.549 105.031 108.469 105.312 108.469C105.594 108.469 105.807 108.549 105.953 108.711C106.099 108.872 106.172 109.07 106.172 109.305C106.172 109.539 106.099 109.734 105.953 109.891C105.807 110.047 105.594 110.125 105.312 110.125C105.031 110.125 104.818 110.047 104.672 109.891C104.531 109.734 104.461 109.539 104.461 109.305ZM111.852 120.156C110.706 120.156 109.773 119.781 109.055 119.031C108.336 118.276 107.977 117.268 107.977 116.008V115.742C107.977 114.904 108.135 114.156 108.453 113.5C108.776 112.839 109.224 112.323 109.797 111.953C110.375 111.578 111 111.391 111.672 111.391C112.771 111.391 113.625 111.753 114.234 112.477C114.844 113.201 115.148 114.237 115.148 115.586V116.188H109.422C109.443 117.021 109.685 117.695 110.148 118.211C110.617 118.721 111.211 118.977 111.93 118.977C112.44 118.977 112.872 118.872 113.227 118.664C113.581 118.456 113.891 118.18 114.156 117.836L115.039 118.523C114.331 119.612 113.268 120.156 111.852 120.156ZM111.672 112.578C111.089 112.578 110.599 112.792 110.203 113.219C109.807 113.641 109.562 114.234 109.469 115H113.703V114.891C113.661 114.156 113.464 113.589 113.109 113.188C112.755 112.781 112.276 112.578 111.672 112.578ZM121.75 117.758C121.75 117.367 121.602 117.065 121.305 116.852C121.013 116.633 120.5 116.445 119.766 116.289C119.036 116.133 118.456 115.945 118.023 115.727C117.596 115.508 117.279 115.247 117.07 114.945C116.867 114.643 116.766 114.284 116.766 113.867C116.766 113.174 117.057 112.589 117.641 112.109C118.229 111.63 118.979 111.391 119.891 111.391C120.849 111.391 121.625 111.638 122.219 112.133C122.818 112.628 123.117 113.26 123.117 114.031H121.664C121.664 113.635 121.495 113.294 121.156 113.008C120.823 112.721 120.401 112.578 119.891 112.578C119.365 112.578 118.953 112.693 118.656 112.922C118.359 113.151 118.211 113.451 118.211 113.82C118.211 114.169 118.349 114.432 118.625 114.609C118.901 114.786 119.398 114.956 120.117 115.117C120.841 115.279 121.427 115.471 121.875 115.695C122.323 115.919 122.654 116.19 122.867 116.508C123.086 116.82 123.195 117.203 123.195 117.656C123.195 118.411 122.893 119.018 122.289 119.477C121.685 119.93 120.901 120.156 119.938 120.156C119.26 120.156 118.661 120.036 118.141 119.797C117.62 119.557 117.211 119.224 116.914 118.797C116.622 118.365 116.477 117.898 116.477 117.398H117.922C117.948 117.883 118.141 118.268 118.5 118.555C118.865 118.836 119.344 118.977 119.938 118.977C120.484 118.977 120.922 118.867 121.25 118.648C121.583 118.424 121.75 118.128 121.75 117.758Z" fill="#3E8E31"/>
<circle cx="64" cy="50" r="49" stroke="#E4ECFF" stroke-width="2"/>
<circle cx="43" cy="50" r="6" fill="#C4C4C4"/>
<circle cx="64" cy="50" r="6" fill="#C4C4C4"/>
<circle cx="85" cy="50" r="6" fill="#C4C4C4"/>
</svg>
