<svg width="104" height="126" viewBox="0 0 104 126" fill="none" xmlns="http://www.w3.org/2000/svg">
<path d="M30.8711 116.296C29.4238 115.88 28.3691 115.37 27.707 114.767C27.0508 114.157 26.7227 113.407 26.7227 112.517C26.7227 111.509 27.124 110.677 27.9268 110.021C28.7354 109.358 29.7842 109.027 31.0732 109.027C31.9521 109.027 32.7344 109.197 33.4199 109.537C34.1113 109.877 34.6445 110.346 35.0195 110.943C35.4004 111.541 35.5908 112.194 35.5908 112.903H33.8945C33.8945 112.13 33.6484 111.523 33.1562 111.084C32.6641 110.639 31.9697 110.416 31.0732 110.416C30.2412 110.416 29.5908 110.601 29.1221 110.97C28.6592 111.333 28.4277 111.84 28.4277 112.49C28.4277 113.012 28.6475 113.454 29.0869 113.817C29.5322 114.175 30.2852 114.503 31.3457 114.802C32.4121 115.101 33.2441 115.432 33.8418 115.795C34.4453 116.152 34.8906 116.571 35.1777 117.052C35.4707 117.532 35.6172 118.098 35.6172 118.748C35.6172 119.785 35.2129 120.617 34.4043 121.244C33.5957 121.865 32.5146 122.176 31.1611 122.176C30.2822 122.176 29.4619 122.009 28.7002 121.675C27.9385 121.335 27.3496 120.872 26.9336 120.286C26.5234 119.7 26.3184 119.035 26.3184 118.291H28.0146C28.0146 119.064 28.2988 119.677 28.8672 120.128C29.4414 120.573 30.2061 120.796 31.1611 120.796C32.0518 120.796 32.7344 120.614 33.209 120.251C33.6836 119.888 33.9209 119.393 33.9209 118.766C33.9209 118.139 33.7012 117.655 33.2617 117.315C32.8223 116.97 32.0254 116.63 30.8711 116.296ZM45.5664 117.351C45.5664 118.798 45.2354 119.964 44.5732 120.849C43.9111 121.733 43.0146 122.176 41.8838 122.176C40.7295 122.176 39.8213 121.81 39.1592 121.077V125.656H37.5332V112.49H39.0186L39.0977 113.545C39.7598 112.725 40.6797 112.314 41.8574 112.314C43 112.314 43.9023 112.745 44.5645 113.606C45.2324 114.468 45.5664 115.666 45.5664 117.201V117.351ZM43.9404 117.166C43.9404 116.094 43.7119 115.247 43.2549 114.626C42.7979 114.005 42.1709 113.694 41.374 113.694C40.3896 113.694 39.6514 114.131 39.1592 115.004V119.548C39.6455 120.415 40.3896 120.849 41.3916 120.849C42.1709 120.849 42.7891 120.541 43.2461 119.926C43.709 119.305 43.9404 118.385 43.9404 117.166ZM47.21 117.157C47.21 116.226 47.3916 115.388 47.7549 114.644C48.124 113.899 48.6338 113.325 49.2842 112.921C49.9404 112.517 50.6875 112.314 51.5254 112.314C52.8203 112.314 53.8662 112.763 54.6631 113.659C55.4658 114.556 55.8672 115.748 55.8672 117.236V117.351C55.8672 118.276 55.6885 119.108 55.3311 119.847C54.9795 120.579 54.4727 121.15 53.8105 121.561C53.1543 121.971 52.3984 122.176 51.543 122.176C50.2539 122.176 49.208 121.728 48.4053 120.831C47.6084 119.935 47.21 118.748 47.21 117.271V117.157ZM48.8447 117.351C48.8447 118.405 49.0879 119.252 49.5742 119.891C50.0664 120.529 50.7227 120.849 51.543 120.849C52.3691 120.849 53.0254 120.526 53.5117 119.882C53.998 119.231 54.2412 118.323 54.2412 117.157C54.2412 116.114 53.9922 115.271 53.4941 114.626C53.002 113.976 52.3457 113.65 51.5254 113.65C50.7227 113.65 50.0752 113.97 49.583 114.608C49.0908 115.247 48.8447 116.161 48.8447 117.351ZM62.5029 113.949C62.2568 113.908 61.9902 113.888 61.7031 113.888C60.6367 113.888 59.9131 114.342 59.5322 115.25V122H57.9062V112.49H59.4883L59.5146 113.589C60.0479 112.739 60.8037 112.314 61.7822 112.314C62.0986 112.314 62.3389 112.355 62.5029 112.438V113.949ZM66.6514 110.188V112.49H68.4268V113.747H66.6514V119.645C66.6514 120.025 66.7305 120.312 66.8887 120.506C67.0469 120.693 67.3164 120.787 67.6973 120.787C67.8848 120.787 68.1426 120.752 68.4707 120.682V122C68.043 122.117 67.627 122.176 67.2227 122.176C66.4961 122.176 65.9482 121.956 65.5791 121.517C65.21 121.077 65.0254 120.453 65.0254 119.645V113.747H63.2939V112.49H65.0254V110.188H66.6514ZM75.8711 119.478C75.8711 119.038 75.7041 118.698 75.3701 118.458C75.042 118.212 74.4648 118.001 73.6387 117.825C72.8184 117.649 72.165 117.438 71.6787 117.192C71.1982 116.946 70.8408 116.653 70.6064 116.313C70.3779 115.974 70.2637 115.569 70.2637 115.101C70.2637 114.321 70.5918 113.662 71.248 113.123C71.9102 112.584 72.7539 112.314 73.7793 112.314C74.8574 112.314 75.7305 112.593 76.3984 113.149C77.0723 113.706 77.4092 114.418 77.4092 115.285H75.7744C75.7744 114.84 75.584 114.456 75.2031 114.134C74.8281 113.812 74.3535 113.65 73.7793 113.65C73.1875 113.65 72.7246 113.779 72.3906 114.037C72.0566 114.295 71.8896 114.632 71.8896 115.048C71.8896 115.44 72.0449 115.736 72.3555 115.936C72.666 116.135 73.2256 116.325 74.0342 116.507C74.8486 116.688 75.5078 116.905 76.0117 117.157C76.5156 117.409 76.8877 117.714 77.1279 118.071C77.374 118.423 77.4971 118.854 77.4971 119.363C77.4971 120.213 77.1572 120.896 76.4775 121.411C75.7979 121.921 74.916 122.176 73.832 122.176C73.0703 122.176 72.3965 122.041 71.8105 121.771C71.2246 121.502 70.7646 121.127 70.4307 120.646C70.1025 120.16 69.9385 119.636 69.9385 119.073H71.5645C71.5938 119.618 71.8105 120.052 72.2148 120.374C72.625 120.69 73.1641 120.849 73.832 120.849C74.4473 120.849 74.9395 120.726 75.3086 120.479C75.6836 120.228 75.8711 119.894 75.8711 119.478Z" fill="black"/>
<circle cx="52" cy="50" r="49" stroke="#F8DB59" stroke-width="2"/>
<path d="M65.7273 49.7185C65.7879 54.5648 63.2545 64.401 52.6364 64.9754M65.7273 49.7185V32.6668M65.7273 49.7185C71.5455 50.2929 73 46.1287 73 43.9748V32.6668H65.7273M52.6364 64.9754C39.3636 65.6933 38.6364 50.975 38.6364 49.7185M52.6364 64.9754V72.873M38.6364 49.7185C38.6364 48.7134 38.6364 34.8207 38.6364 28H65.7273V32.6668M38.6364 49.7185C32.5273 51.0109 31 45.7099 31 42.8978V32.6668H34.6364M52.6364 72.873H59.7273C60.3333 72.8132 61.5455 73.1243 61.5455 74.8474C61.5455 76.5705 61.5455 78.3176 61.5455 78.9757H71.1818H50.4545M52.6364 72.873C51.0606 72.873 47.3636 72.873 45.1818 72.873C42.4545 72.873 43.1818 74.3089 43.1818 76.8218C43.1818 78.8321 41.7273 79.0954 41 78.9757H32.8182" stroke="#F8DB59" stroke-width="2"/>
</svg>
